<mxfile host="65bd71144e">
    <diagram id="8KDsOTzCj5n8PcjJAM5R" name="Page-1">
        <mxGraphModel dx="699" dy="761" grid="1" gridSize="10" guides="1" tooltips="1" connect="1" arrows="1" fold="1" page="1" pageScale="1" pageWidth="850" pageHeight="1100" math="0" shadow="0">
            <root>
                <mxCell id="0"/>
                <mxCell id="1" parent="0"/>
                <mxCell id="2" value="" style="rounded=0;whiteSpace=wrap;html=1;" parent="1" vertex="1">
                    <mxGeometry x="121" y="160" width="590" height="640" as="geometry"/>
                </mxCell>
                <mxCell id="3" value="user" style="shape=umlActor;verticalLabelPosition=bottom;verticalAlign=top;html=1;" parent="1" vertex="1">
                    <mxGeometry x="30" y="500" width="50" height="90" as="geometry"/>
                </mxCell>
                <mxCell id="5" value="&lt;font style=&quot;font-size: 18px;&quot; face=&quot;Comic Sans MS&quot;&gt;Choose A Topic&lt;/font&gt;" style="ellipse;whiteSpace=wrap;html=1;" parent="1" vertex="1">
                    <mxGeometry x="180" y="470" width="130" height="80" as="geometry"/>
                </mxCell>
                <mxCell id="6" value="Leave A Signal" style="ellipse;whiteSpace=wrap;html=1;fontFamily=Comic Sans MS;fontSize=18;" parent="1" vertex="1">
                    <mxGeometry x="160" y="650" width="120" height="80" as="geometry"/>
                </mxCell>
                <mxCell id="8" value="Like A Signal" style="ellipse;whiteSpace=wrap;html=1;fontFamily=Comic Sans MS;fontSize=18;" parent="1" vertex="1">
                    <mxGeometry x="440" y="375" width="140" height="85" as="geometry"/>
                </mxCell>
                <mxCell id="9" value="Dislike A Signal" style="ellipse;whiteSpace=wrap;html=1;fontFamily=Comic Sans MS;fontSize=18;" parent="1" vertex="1">
                    <mxGeometry x="310" y="372.5" width="120" height="90" as="geometry"/>
                </mxCell>
                <mxCell id="10" value="See Signals" style="ellipse;whiteSpace=wrap;html=1;fontFamily=Comic Sans MS;fontSize=18;" parent="1" vertex="1">
                    <mxGeometry x="355" y="571" width="140" height="70" as="geometry"/>
                </mxCell>
                <mxCell id="11" value="" style="endArrow=classic;html=1;fontFamily=Comic Sans MS;fontSize=18;" parent="1" source="3" target="5" edge="1">
                    <mxGeometry width="50" height="50" relative="1" as="geometry">
                        <mxPoint x="400" y="560" as="sourcePoint"/>
                        <mxPoint x="450" y="510" as="targetPoint"/>
                    </mxGeometry>
                </mxCell>
                <mxCell id="12" value="" style="endArrow=classic;html=1;fontFamily=Comic Sans MS;fontSize=18;dashed=1;dashPattern=8 8;" parent="1" source="5" target="10" edge="1">
                    <mxGeometry width="50" height="50" relative="1" as="geometry">
                        <mxPoint x="400" y="560" as="sourcePoint"/>
                        <mxPoint x="450" y="510" as="targetPoint"/>
                    </mxGeometry>
                </mxCell>
                <mxCell id="13" value="" style="endArrow=classic;html=1;dashed=1;dashPattern=8 8;fontFamily=Comic Sans MS;fontSize=18;exitX=0.5;exitY=1;exitDx=0;exitDy=0;" parent="1" source="8" target="10" edge="1">
                    <mxGeometry width="50" height="50" relative="1" as="geometry">
                        <mxPoint x="400" y="560" as="sourcePoint"/>
                        <mxPoint x="450" y="510" as="targetPoint"/>
                    </mxGeometry>
                </mxCell>
                <mxCell id="14" value="" style="endArrow=classic;html=1;dashed=1;dashPattern=8 8;fontFamily=Comic Sans MS;fontSize=18;" parent="1" source="9" target="10" edge="1">
                    <mxGeometry width="50" height="50" relative="1" as="geometry">
                        <mxPoint x="400" y="560" as="sourcePoint"/>
                        <mxPoint x="450" y="510" as="targetPoint"/>
                    </mxGeometry>
                </mxCell>
                <mxCell id="15" value="" style="endArrow=classic;html=1;dashed=1;dashPattern=8 8;fontFamily=Comic Sans MS;fontSize=18;" parent="1" source="6" target="5" edge="1">
                    <mxGeometry width="50" height="50" relative="1" as="geometry">
                        <mxPoint x="400" y="560" as="sourcePoint"/>
                        <mxPoint x="450" y="510" as="targetPoint"/>
                    </mxGeometry>
                </mxCell>
                <mxCell id="16" value="Remove Dislike" style="ellipse;whiteSpace=wrap;html=1;fontFamily=Comic Sans MS;fontSize=18;" parent="1" vertex="1">
                    <mxGeometry x="275" y="240" width="155" height="70" as="geometry"/>
                </mxCell>
                <mxCell id="17" value="Remove Like" style="ellipse;whiteSpace=wrap;html=1;fontFamily=Comic Sans MS;fontSize=18;" parent="1" vertex="1">
                    <mxGeometry x="450" y="240" width="140" height="70" as="geometry"/>
                </mxCell>
                <mxCell id="18" value="" style="endArrow=classic;html=1;dashed=1;dashPattern=8 8;fontFamily=Comic Sans MS;fontSize=18;" parent="1" source="16" target="9" edge="1">
                    <mxGeometry width="50" height="50" relative="1" as="geometry">
                        <mxPoint x="400" y="560" as="sourcePoint"/>
                        <mxPoint x="450" y="510" as="targetPoint"/>
                    </mxGeometry>
                </mxCell>
                <mxCell id="19" value="" style="endArrow=classic;html=1;dashed=1;dashPattern=8 8;fontFamily=Comic Sans MS;fontSize=18;" parent="1" source="17" target="8" edge="1">
                    <mxGeometry width="50" height="50" relative="1" as="geometry">
                        <mxPoint x="400" y="560" as="sourcePoint"/>
                        <mxPoint x="450" y="510" as="targetPoint"/>
                    </mxGeometry>
                </mxCell>
                <mxCell id="20" value="&amp;lt;&amp;lt;extend&amp;gt;&amp;gt;" style="text;align=center;fontStyle=1;verticalAlign=middle;spacingLeft=3;spacingRight=3;strokeColor=none;rotatable=0;points=[[0,0.5],[1,0.5]];portConstraint=eastwest;fontFamily=Comic Sans MS;fontSize=13;fillColor=default;whiteSpace=wrap;html=1;" parent="1" vertex="1">
                    <mxGeometry x="234" y="595" width="5" height="5" as="geometry"/>
                </mxCell>
                <mxCell id="21" value="&amp;lt;&amp;lt;extend&amp;gt;&amp;gt;" style="text;align=center;fontStyle=1;verticalAlign=middle;spacingLeft=3;spacingRight=3;strokeColor=none;rotatable=0;points=[[0,0.5],[1,0.5]];portConstraint=eastwest;fontFamily=Comic Sans MS;fontSize=13;fillColor=default;whiteSpace=wrap;html=1;" parent="1" vertex="1">
                    <mxGeometry x="399" y="507" width="5" height="5" as="geometry"/>
                </mxCell>
                <mxCell id="22" value="&amp;lt;&amp;lt;extend&amp;gt;&amp;gt;" style="text;align=center;fontStyle=1;verticalAlign=middle;spacingLeft=3;spacingRight=3;strokeColor=none;rotatable=0;points=[[0,0.5],[1,0.5]];portConstraint=eastwest;fontFamily=Comic Sans MS;fontSize=13;fillColor=default;whiteSpace=wrap;html=1;" parent="1" vertex="1">
                    <mxGeometry x="484" y="502" width="5" height="5" as="geometry"/>
                </mxCell>
                <mxCell id="23" value="&amp;lt;&amp;lt;extend&amp;gt;&amp;gt;" style="text;align=center;fontStyle=1;verticalAlign=middle;spacingLeft=3;spacingRight=3;strokeColor=none;rotatable=0;points=[[0,0.5],[1,0.5]];portConstraint=eastwest;fontFamily=Comic Sans MS;fontSize=13;fillColor=default;whiteSpace=wrap;html=1;" parent="1" vertex="1">
                    <mxGeometry x="516" y="339" width="5" height="5" as="geometry"/>
                </mxCell>
                <mxCell id="24" value="&amp;lt;&amp;lt;extend&amp;gt;&amp;gt;" style="text;align=center;fontStyle=1;verticalAlign=middle;spacingLeft=3;spacingRight=3;strokeColor=none;rotatable=0;points=[[0,0.5],[1,0.5]];portConstraint=eastwest;fontFamily=Comic Sans MS;fontSize=13;fillColor=default;whiteSpace=wrap;html=1;" parent="1" vertex="1">
                    <mxGeometry x="362" y="339" width="5" height="5" as="geometry"/>
                </mxCell>
                <mxCell id="25" value="&amp;lt;&amp;lt;include&amp;gt;&amp;gt;" style="text;align=center;fontStyle=1;verticalAlign=middle;spacingLeft=3;spacingRight=3;strokeColor=none;rotatable=0;points=[[0,0.5],[1,0.5]];portConstraint=eastwest;fontFamily=Comic Sans MS;fontSize=13;fillColor=default;whiteSpace=wrap;html=1;" parent="1" vertex="1">
                    <mxGeometry x="335" y="551" width="5" height="5" as="geometry"/>
                </mxCell>
                <mxCell id="26" value="admin" style="shape=umlActor;verticalLabelPosition=bottom;verticalAlign=top;html=1;" parent="1" vertex="1">
                    <mxGeometry x="740" y="500" width="50" height="90" as="geometry"/>
                </mxCell>
                <mxCell id="27" value="Delete Own Signal" style="ellipse;whiteSpace=wrap;html=1;fontFamily=Comic Sans MS;fontSize=18;" parent="1" vertex="1">
                    <mxGeometry x="300" y="650" width="125" height="80" as="geometry"/>
                </mxCell>
                <mxCell id="29" value="" style="endArrow=classic;html=1;fontFamily=Comic Sans MS;fontSize=18;" parent="1" source="26" target="36" edge="1">
                    <mxGeometry width="50" height="50" relative="1" as="geometry">
                        <mxPoint x="420" y="490" as="sourcePoint"/>
                        <mxPoint x="470" y="440" as="targetPoint"/>
                    </mxGeometry>
                </mxCell>
                <mxCell id="30" value="Watch The Chart" style="ellipse;whiteSpace=wrap;html=1;fontFamily=Comic Sans MS;fontSize=18;" parent="1" vertex="1">
                    <mxGeometry x="150" y="320" width="140" height="80" as="geometry"/>
                </mxCell>
                <mxCell id="31" value="" style="endArrow=classic;html=1;fontFamily=Comic Sans MS;fontSize=18;dashed=1;dashPattern=8 8;entryX=0.5;entryY=1;entryDx=0;entryDy=0;" parent="1" source="5" target="30" edge="1">
                    <mxGeometry width="50" height="50" relative="1" as="geometry">
                        <mxPoint x="420" y="480" as="sourcePoint"/>
                        <mxPoint x="470" y="430" as="targetPoint"/>
                    </mxGeometry>
                </mxCell>
                <mxCell id="32" value="&amp;lt;&amp;lt;include&amp;gt;&amp;gt;" style="text;align=center;fontStyle=1;verticalAlign=middle;spacingLeft=3;spacingRight=3;strokeColor=none;rotatable=0;points=[[0,0.5],[1,0.5]];portConstraint=eastwest;fontFamily=Comic Sans MS;fontSize=13;fillColor=default;whiteSpace=wrap;html=1;" parent="1" vertex="1">
                    <mxGeometry x="227" y="430" width="5" height="5" as="geometry"/>
                </mxCell>
                <mxCell id="33" value="" style="endArrow=classic;html=1;dashed=1;dashPattern=8 8;fontFamily=Comic Sans MS;fontSize=18;exitX=0;exitY=0;exitDx=0;exitDy=0;" parent="1" source="27" target="5" edge="1">
                    <mxGeometry width="50" height="50" relative="1" as="geometry">
                        <mxPoint x="380" y="680" as="sourcePoint"/>
                        <mxPoint x="317.4707160025823" y="559.8580737330992" as="targetPoint"/>
                    </mxGeometry>
                </mxCell>
                <mxCell id="34" value="&amp;lt;&amp;lt;extend&amp;gt;&amp;gt;" style="text;align=center;fontStyle=1;verticalAlign=middle;spacingLeft=3;spacingRight=3;strokeColor=none;rotatable=0;points=[[0,0.5],[1,0.5]];portConstraint=eastwest;fontFamily=Comic Sans MS;fontSize=13;fillColor=default;whiteSpace=wrap;html=1;" parent="1" vertex="1">
                    <mxGeometry x="296" y="611" width="5" height="5" as="geometry"/>
                </mxCell>
                <mxCell id="35" value="Delete A Signal" style="ellipse;whiteSpace=wrap;html=1;fontFamily=Comic Sans MS;fontSize=18;" parent="1" vertex="1">
                    <mxGeometry x="480" y="641" width="125" height="80" as="geometry"/>
                </mxCell>
                <mxCell id="36" value="&lt;font style=&quot;font-size: 18px;&quot; face=&quot;Comic Sans MS&quot;&gt;Choose A Topic&lt;/font&gt;" style="ellipse;whiteSpace=wrap;html=1;" parent="1" vertex="1">
                    <mxGeometry x="530" y="510" width="130" height="80" as="geometry"/>
                </mxCell>
                <mxCell id="37" value="" style="endArrow=classic;html=1;dashed=1;dashPattern=8 8;fontFamily=Comic Sans MS;fontSize=18;" parent="1" source="35" target="36" edge="1">
                    <mxGeometry width="50" height="50" relative="1" as="geometry">
                        <mxPoint x="565.6654942652609" y="690.2955047695706" as="sourcePoint"/>
                        <mxPoint x="580.0016809223263" y="590.0028355168762" as="targetPoint"/>
                    </mxGeometry>
                </mxCell>
                <mxCell id="38" value="&amp;lt;&amp;lt;extend&amp;gt;&amp;gt;" style="text;align=center;fontStyle=1;verticalAlign=middle;spacingLeft=3;spacingRight=3;strokeColor=none;rotatable=0;points=[[0,0.5],[1,0.5]];portConstraint=eastwest;fontFamily=Comic Sans MS;fontSize=13;fillColor=default;whiteSpace=wrap;html=1;" parent="1" vertex="1">
                    <mxGeometry x="567" y="616" width="5" height="5" as="geometry"/>
                </mxCell>
            </root>
        </mxGraphModel>
    </diagram>
</mxfile>